<svg width="170" height="82" viewBox="0 0 170 82" fill="none" xmlns="http://www.w3.org/2000/svg">
<g clip-path="url(#clip0)">
<path d="M137.127 48.43C140.833 48.43 143.837 45.4221 143.837 41.7117C143.837 38.0013 140.833 34.9934 137.127 34.9934C133.421 34.9934 130.416 38.0013 130.416 41.7117C130.416 45.4221 133.421 48.43 137.127 48.43Z" fill="#F77777"/>
<path d="M35.1676 82C41.0807 82 45.8741 77.2009 45.8741 71.2809C45.8741 65.3609 41.0807 60.5618 35.1676 60.5618C29.2546 60.5618 24.4612 65.3609 24.4612 71.2809C24.4612 77.2009 29.2546 82 35.1676 82Z" fill="#F4F05D"/>
<path d="M6.54882 43.9871C10.1656 43.9871 13.0976 41.0516 13.0976 37.4306C13.0976 33.8095 10.1656 30.874 6.54882 30.874C2.93201 30.874 0 33.8095 0 37.4306C0 41.0516 2.93201 43.9871 6.54882 43.9871Z" fill="#CCEA92"/>
<path d="M74.4498 63.8077H56.2143C54.0063 63.8077 52.2183 62.0176 52.2183 59.8069V24.0047C52.2183 21.794 54.0063 20.0039 56.2143 20.0039H73.4481C75.6561 20.0039 77.4441 21.794 77.4441 24.0047V24.0371C77.4441 26.2478 75.6561 28.0379 73.4481 28.0379H66.0699C63.8618 28.0379 62.0738 29.828 62.0738 32.0387V33.7748C62.0738 35.9855 63.8618 37.7756 66.0699 37.7756H72.3817C74.5898 37.7756 76.3778 39.5658 76.3778 41.7764C76.3778 43.9871 74.5898 45.7772 72.3817 45.7772H66.0699C63.8618 45.7772 62.0738 47.5673 62.0738 49.778V51.7946C62.0738 54.0053 63.8618 55.7954 66.0699 55.7954H74.4605C76.6686 55.7954 78.4566 57.5855 78.4566 59.7962C78.4566 62.0176 76.6578 63.8077 74.4498 63.8077Z" fill="#686868"/>
<path d="M81.7202 61.0471V55.5797C81.7202 54.2641 83.1419 53.4876 84.2621 54.167C85.2962 54.7817 86.3625 55.2885 87.4827 55.6875C89.5615 56.4316 91.6511 56.7983 93.7622 56.7983C95.0009 56.7983 96.0888 56.6904 97.0151 56.464C97.9414 56.2375 98.7169 55.9248 99.3309 55.5366C99.9556 55.1376 100.419 54.6739 100.72 54.1347C101.022 53.5955 101.173 53.0132 101.173 52.3769C101.173 51.525 100.925 50.7593 100.44 50.0907C99.9556 49.4221 99.2878 48.7967 98.4369 48.2251C97.5967 47.6536 96.595 47.1036 95.4317 46.5752C94.2685 46.0468 93.019 45.5076 91.6834 44.9577C88.269 43.5342 85.7162 41.7872 84.0359 39.7383C82.3556 37.6786 81.5155 35.1983 81.5155 32.2867C81.5155 30.0113 81.9679 28.0487 82.8834 26.4095C83.799 24.7704 85.0484 23.4224 86.621 22.3656C88.1936 21.3088 90.0247 20.5324 92.0927 20.0255C94.1715 19.5295 96.3688 19.2814 98.6846 19.2814C100.957 19.2814 102.982 19.4216 104.738 19.6912C106.041 19.8961 107.269 20.1765 108.432 20.5431C109.133 20.7696 109.606 21.4058 109.606 22.1499V27.1967C109.606 28.4261 108.336 29.2564 107.215 28.7496C106.354 28.3614 105.46 28.0379 104.544 27.7899C103.629 27.531 102.713 27.3477 101.808 27.2291C100.903 27.1105 100.042 27.0458 99.2339 27.0458C98.1137 27.0458 97.1013 27.1536 96.1857 27.3693C95.2702 27.585 94.4947 27.8869 93.8699 28.2751C93.2344 28.6633 92.7497 29.127 92.4051 29.6662C92.0604 30.2054 91.8881 30.8093 91.8881 31.4887C91.8881 32.222 92.0819 32.8798 92.4697 33.4621C92.8575 34.0445 93.4068 34.5944 94.1177 35.1121C94.8286 35.6297 95.6902 36.1365 96.7135 36.6433C97.726 37.1394 98.8785 37.657 100.16 38.1854C101.905 38.9187 103.478 39.6952 104.878 40.5255C106.267 41.3451 107.463 42.2833 108.465 43.3185C109.456 44.3538 110.22 45.54 110.748 46.8772C111.276 48.2144 111.545 49.7672 111.545 51.5358C111.545 53.9837 111.082 56.0326 110.156 57.6933C109.229 59.354 107.969 60.702 106.386 61.7265C104.803 62.7509 102.95 63.495 100.85 63.9371C98.7492 64.3901 96.5196 64.6057 94.1823 64.6057C91.7803 64.6057 89.4969 64.4008 87.3319 63.9911C85.6193 63.6675 84.0898 63.2146 82.7326 62.6431C82.1295 62.3304 81.7202 61.7157 81.7202 61.0471Z" fill="#686868"/>
<path d="M148.415 63.8077H140.078C139.529 63.8077 139.012 63.5381 138.71 63.0744L126.453 44.7743C126.205 44.4077 125.817 43.5989 125.289 42.3588H125.138V62.147C125.138 63.0637 124.395 63.7969 123.49 63.7969H116.942C116.026 63.7969 115.294 63.0529 115.294 62.147V21.6539C115.294 20.7372 116.037 20.0039 116.942 20.0039H123.49C124.406 20.0039 125.138 20.748 125.138 21.6539V40.7088H125.289C125.526 40.1481 125.925 39.3609 126.474 38.3364C126.496 38.2933 126.528 38.2393 126.56 38.1962L138.107 20.7372C138.408 20.2735 138.925 19.9932 139.486 19.9932H147.09C148.436 19.9932 149.223 21.5352 148.426 22.6244L135.802 39.9216C135.382 40.5039 135.382 41.2912 135.802 41.8627L149.772 61.1765C150.547 62.2764 149.761 63.8077 148.415 63.8077Z" fill="#686868"/>
<path d="M53.4246 29.7417C44.7754 17.0708 33.5304 15.4748 19.7003 24.9429L8.20755 32.8151C6.93656 33.6886 6.61343 35.4248 7.47512 36.6973L30.9561 71.0652C31.8285 72.3377 33.5627 72.672 34.8337 71.7985L46.3264 63.9371C52.606 59.6344 56.3974 54.3827 57.7007 48.1712C59.004 41.9598 57.5714 35.8238 53.4246 29.7417ZM46.251 45.8096C45.7125 48.9908 43.8275 51.6652 40.5962 53.8327L38.2158 55.4287C37.4834 55.914 36.5032 55.7199 36.0185 54.9974L23.6856 36.6326C23.2009 35.8993 23.3948 34.9179 24.1164 34.4327L26.443 32.869C29.7389 30.6583 32.9056 29.8388 35.9431 30.4211C38.9805 31.0034 41.5656 32.8798 43.6767 36.0395C45.9279 39.3716 46.7788 42.6391 46.251 45.8096Z" fill="#686868"/>
<path d="M154.899 3.14887L148.35 15.712C147.855 16.6717 146.982 17.1894 146.379 16.8982L146.131 16.7796C145.517 16.4884 145.377 15.4855 145.808 14.4934L151.42 1.47738C151.883 0.398998 152.831 -0.237246 153.499 0.0754839L154.694 0.647025C155.33 0.970539 155.438 2.11362 154.899 3.14887Z" fill="#CCEA92"/>
<path d="M163.483 11.0857L152.185 19.6265C151.323 20.2735 150.321 20.3706 149.89 19.853L149.718 19.6373C149.287 19.1089 149.589 18.1491 150.397 17.4374L161.038 8.07707C161.922 7.30063 163.053 7.12809 163.516 7.69963L164.356 8.72409C164.808 9.29564 164.421 10.374 163.483 11.0857Z" fill="#F4F05D"/>
<path d="M168.072 22.8293L154.027 24.5871C152.96 24.7165 152.034 24.3067 151.926 23.6381L151.872 23.3685C151.765 22.6999 152.508 22.0097 153.563 21.794L167.447 19.001C168.6 18.7746 169.666 19.1844 169.785 19.9177L170 21.2225C170.108 21.9558 169.235 22.6891 168.072 22.8293Z" fill="#F77777"/>
</g>
<defs>
<clipPath id="clip0">
<rect width="170" height="82" fill="white"/>
</clipPath>
</defs>
</svg>
